<?xml version="1.0" standalone="no"?>
<!DOCTYPE svg PUBLIC "-//W3C//DTD SVG 20010904//EN"
 "http://www.w3.org/TR/2001/REC-SVG-20010904/DTD/svg10.dtd">
<svg version="1.0" xmlns="http://www.w3.org/2000/svg"
 width="204.000000pt" height="204.000000pt" viewBox="0 0 204.000000 204.000000"
 preserveAspectRatio="xMidYMid meet">
<metadata>
Created by potrace 1.11, written by Peter Selinger 2001-2013
</metadata>
<g transform="translate(0.000000,204.000000) scale(0.100000,-0.100000)"
fill="#000000" stroke="none">
<path d="M957 2014 c-1 -1 -32 -4 -68 -8 -79 -7 -219 -46 -298 -83 -462 -214
-698 -748 -539 -1218 137 -405 520 -675 963 -678 125 -1 170 3 245 22 560 144
887 705 724 1241 -131 430 -502 711 -957 724 -37 2 -68 2 -70 0z m254 -147
c290 -65 544 -299 638 -587 23 -70 27 -86 40 -181 8 -64 8 -108 -3 -203 -31
-265 -285 -521 -556 -563 -64 -9 -243 45 -414 127 -87 41 -236 127 -236 136 0
2 24 -6 53 -17 82 -33 266 -98 290 -103 12 -2 42 -9 67 -16 25 -7 92 -13 150
-13 121 -1 191 16 262 63 l47 31 -15 42 c-51 144 -209 347 -334 428 -28 18
-50 35 -50 38 0 3 64 28 143 54 214 73 218 75 122 71 -279 -12 -316 -12 -322
1 -2 8 -25 24 -49 36 -54 26 -114 20 -158 -15 l-29 -23 -76 19 c-42 10 -103
21 -136 24 -33 4 -69 8 -80 9 -11 1 -48 3 -81 4 l-62 1 13 37 c12 34 11 38 -9
48 -11 7 -45 27 -74 45 -44 27 -56 30 -63 19 -11 -17 -49 -136 -49 -154 0 -12
-59 -30 -68 -20 -3 3 2 31 12 63 68 219 213 398 416 514 42 23 146 66 180 73
8 2 35 8 60 14 25 6 56 12 70 14 51 8 237 -2 301 -16z"/>
<path d="M909 1846 c-2 -2 -17 -6 -34 -9 -44 -7 -108 -25 -150 -42 l-36 -16
36 -62 c19 -34 39 -68 43 -75 6 -10 26 -8 93 10 l84 23 -1 80 c-1 44 -2 83 -3
88 -1 7 -25 10 -32 3z"/>
<path d="M1099 1843 c-1 -5 -2 -44 -3 -88 l-1 -80 84 -23 c96 -25 85 -31 140
70 l33 58 -39 17 c-64 27 -212 59 -214 46z"/>
<path d="M1443 1643 c-21 -38 -40 -72 -42 -76 -1 -5 24 -36 57 -71 l61 -63 75
44 76 45 -19 27 c-27 37 -106 116 -140 140 l-29 21 -39 -67z"/>
<path d="M489 1652 c-30 -26 -70 -65 -87 -86 l-33 -39 68 -43 c37 -24 73 -43
78 -43 6 0 37 25 69 55 l59 56 -36 74 c-20 41 -42 74 -49 74 -7 0 -38 -22 -69
-48z"/>
<path d="M1672 1346 c-34 -24 -65 -45 -67 -48 -3 -3 3 -26 14 -51 11 -25 23
-62 27 -82 l6 -35 87 6 c47 4 88 8 91 11 14 13 -69 244 -87 242 -4 0 -36 -20
-71 -43z"/>
<path d="M1809 1006 c-2 -3 -36 -7 -74 -11 -38 -3 -70 -7 -71 -8 -1 -1 -5 -22
-8 -47 -4 -25 -10 -58 -13 -75 -4 -16 -7 -34 -8 -40 0 -11 153 -81 160 -73 2
2 11 31 19 64 26 105 23 218 -5 190z"/>
</g>
</svg>
